<svg xmlns="http://www.w3.org/2000/svg" xmlns:xlink="http://www.w3.org/1999/xlink" viewBox="0 0 71.105 25">
  <defs>
    <style>
      .cls-1 {
        fill: url(#linear-gradient);
      }

      .cls-2 {
        fill: #92deff;
      }

      .cls-3 {
        fill: #43a8ed;
      }
    </style>
    <linearGradient id="linear-gradient" x1="0.058" x2="0.779" y2="0.608" gradientUnits="objectBoundingBox">
      <stop offset="0" stop-color="#92deff"/>
      <stop offset="1" stop-color="#43a8ed"/>
    </linearGradient>
  </defs>
  <g id="Group_945" data-name="Group 945" transform="translate(-252 -150)">
    <path id="Path_61" data-name="Path 61" class="cls-1" d="M6.9-.352A5.094,5.094,0,0,1,4.535.141a3.861,3.861,0,0,1-2.93-1.154A4.206,4.206,0,0,1,.5-4.043,4.411,4.411,0,0,1,1.743-7.3,4.24,4.24,0,0,1,4.875-8.543,5.133,5.133,0,0,1,6.9-8.2v1.383a3.607,3.607,0,0,0-1.875-.5,2.943,2.943,0,0,0-2.212.873,3.207,3.207,0,0,0-.847,2.332A3.058,3.058,0,0,0,2.754-1.9a2.753,2.753,0,0,0,2.08.823A3.724,3.724,0,0,0,6.9-1.641Zm6.824.492a3.779,3.779,0,0,1-2.909-1.178A4.326,4.326,0,0,1,9.719-4.1a4.583,4.583,0,0,1,1.113-3.234,3.911,3.911,0,0,1,3.023-1.207,3.7,3.7,0,0,1,2.851,1.172,4.341,4.341,0,0,1,1.081,3.064A4.6,4.6,0,0,1,16.68-1.055,3.84,3.84,0,0,1,13.721.141Zm.064-7.459a2.338,2.338,0,0,0-1.878.861,3.408,3.408,0,0,0-.724,2.268,3.44,3.44,0,0,0,.7,2.256,2.267,2.267,0,0,0,1.84.855,2.375,2.375,0,0,0,1.9-.814,3.4,3.4,0,0,0,.7-2.279A3.562,3.562,0,0,0,15.651-6.5,2.288,2.288,0,0,0,13.785-7.318ZM25.9,0H21.248V-8.4h1.395v7.225H25.9Zm3.133,0V-8.4h2.426q4.646,0,4.646,4.1a4.036,4.036,0,0,1-1.289,3.126A4.92,4.92,0,0,1,31.36,0Zm1.389-7.219v6.041h1.113a3.113,3.113,0,0,0,2.288-.809,3.071,3.071,0,0,0,.817-2.285q0-2.947-3.053-2.947Z" transform="translate(287 166.543)"/>
    <g id="snowflake" transform="translate(252 149.915)">
      <g id="Group_944" data-name="Group 944" transform="translate(1.199 1.284)">
        <path id="Path_56" data-name="Path 56" class="cls-2" d="M176.881,29.732a1.039,1.039,0,0,1-.737-.305l-3.021-3.02a1.042,1.042,0,0,1,1.474-1.473l2.284,2.283,2.284-2.283a1.042,1.042,0,0,1,1.474,1.473l-3.021,3.02A1.039,1.039,0,0,1,176.881,29.732Z" transform="translate(-165.576 -24.629)"/>
        <path id="Path_57" data-name="Path 57" class="cls-2" d="M179.9,388a1.039,1.039,0,0,1-.737-.305l-2.284-2.283L174.6,387.69a1.042,1.042,0,0,1-1.474-1.473l3.021-3.02a1.042,1.042,0,0,1,1.474,0l3.021,3.02A1.042,1.042,0,0,1,179.9,388Z" transform="translate(-165.577 -365.393)"/>
        <path id="Path_58" data-name="Path 58" class="cls-2" d="M25.594,180.969a1.042,1.042,0,0,1-.737-1.778l2.284-2.283-2.284-2.283a1.042,1.042,0,1,1,1.474-1.473l3.021,3.02a1.042,1.042,0,0,1,0,1.473l-3.021,3.02A1.039,1.039,0,0,1,25.594,180.969Z" transform="translate(-24.552 -165.607)"/>
        <path id="Path_59" data-name="Path 59" class="cls-2" d="M387,180.971a1.039,1.039,0,0,1-.737-.305l-3.021-3.02a1.042,1.042,0,0,1,0-1.473l3.021-3.02a1.042,1.042,0,0,1,1.474,1.473l-2.284,2.283,2.284,2.283a1.042,1.042,0,0,1-.737,1.778Z" transform="translate(-365.429 -165.609)"/>
      </g>
      <path id="Path_60" data-name="Path 60" class="cls-3" d="M23.966,11.543H16.9v-.882a1.041,1.041,0,0,0-.283-.712l2.978-2.977A1.042,1.042,0,0,0,18.119,5.5l-3.341,3.34-1.232-.71v-7a1.042,1.042,0,0,0-2.084,0v7l-1.232.71L6.889,5.5A1.042,1.042,0,0,0,5.415,6.972L8.394,9.949a1.041,1.041,0,0,0-.283.712v.882H1.042a1.042,1.042,0,1,0,0,2.083H8.111v.882a1.041,1.041,0,0,0,.283.712L5.415,18.2a1.042,1.042,0,0,0,1.474,1.473l3.341-3.34,1.232.71v7a1.042,1.042,0,0,0,2.084,0v-7l1.232-.71,3.341,3.34A1.042,1.042,0,1,0,19.593,18.2l-2.978-2.977a1.041,1.041,0,0,0,.283-.712v-.882h7.069a1.042,1.042,0,1,0,0-2.083ZM10.2,13.907V11.263L12.5,9.933l2.309,1.33v2.643L12.5,15.237Z"/>
    </g>
  </g>
</svg>
