<svg xmlns="http://www.w3.org/2000/svg" width="28" height="28" viewBox="0 0 28 28">
  <path id="Path_1" data-name="Path 1" d="M19.8,3.336H13.18V13.18H9.844A4.922,4.922,0,0,0,0,13.18v1.64H13.18v9.844H19.8V28H28V19.742H19.8v3.281H14.82v-8.2H19.8V18.1H28V9.9H19.8v3.28H14.82V4.98H19.8V8.258H28V0H19.8Zm2.221,19.108L23.078,23.5l2.7-2.7,1.16,1.16-3.861,3.861L20.858,23.6Zm0-9.844,1.061,1.061,2.7-2.7,1.16,1.16L23.078,15.98l-2.22-2.22Zm0-9.844,1.061,1.061,2.7-2.7,1.16,1.16-3.864,3.86L20.857,3.916Zm0,0" fill="#fff"/>
</svg>
