<svg xmlns="http://www.w3.org/2000/svg" viewBox="0 0 34 34">
  <defs>
    <style>
      .cls-1 {
        fill: #fff;
      }
    </style>
  </defs>
  <path id="check" class="cls-1" d="M13.542,22.584a1.064,1.064,0,0,0,.465.879,2.708,2.708,0,0,0,.766.388c.516.076,6.425.707,10.3,1.116l-.279,2.641c-3.018-.319-10.083-1.068-10.492-1.144a5.11,5.11,0,0,1-1.79-.807,3.72,3.72,0,0,1-.878-.84l-.012.012L5.248,18.576a1.328,1.328,0,0,0-1.86,1.9l9.857,9.673a4.162,4.162,0,0,0,2.933,1.2H34.333V34H16.178a6.806,6.806,0,0,1-4.794-1.959L1.527,22.367A3.984,3.984,0,0,1,7.109,16.68l4.222,4.143a3.747,3.747,0,0,1,1.492-1.5A10.753,10.753,0,0,1,25.178,1.736L23.316,3.709a8.1,8.1,0,1,0,4.109,7.256l2.4-2.545a10.751,10.751,0,0,1-3.645,10.621,15.661,15.661,0,0,1,6.78,2.76l1.372.982V26.05l-2.918-2.088a13.023,13.023,0,0,0-7.457-2.443h-.165l-9.188,0a1.064,1.064,0,0,0-1.063,1.062ZM15.659,7.929l-1.83,1.925,5.793,5.507L30.385,3.96,28.453,2.136,19.52,11.6Zm0,0" transform="translate(-0.333 0)"/>
</svg>
