<svg xmlns="http://www.w3.org/2000/svg" width="25.36" height="28.01" viewBox="0 0 25.36 28.01">
  <defs>
    <style>
      .cls-1 {
        fill: #fff;
      }
    </style>
  </defs>
  <g id="Group_5" data-name="Group 5" transform="translate(-147.995 -803.995)">
    <path id="Path_294" data-name="Path 294" class="cls-1" d="M42.653,0H24.97a1.085,1.085,0,0,0-1.179,1.18v.9H39.117A1.084,1.084,0,0,1,40.3,3.255V24.168h2.358a1.085,1.085,0,0,0,1.179-1.18V1.18A1.085,1.085,0,0,0,42.653,0Z" transform="translate(129.514 804)"/>
    <path id="Path_295" data-name="Path 295" class="cls-1" d="M23.706,13.685H6.022a1.084,1.084,0,0,0-1.179,1.179v21.81a1.085,1.085,0,0,0,1.179,1.179H23.706a1.085,1.085,0,0,0,1.179-1.179V14.863a1.084,1.084,0,0,0-1.179-1.178Zm-3.537,18.3H9.559V30.219h10.61v1.768Zm0-5.305H9.559V24.914h10.61v1.768Zm0-5.3H9.559V19.608h10.61v1.768Z" transform="translate(143.157 794.148)"/>
  </g>
</svg>
