<svg xmlns="http://www.w3.org/2000/svg" width="54" height="54" viewBox="0 0 54 54"><defs><style>.a{fill:#dcd732;}.b{fill:#a0af32;}.c{fill:#006941;}.d{fill:#fff;}</style></defs><circle class="a" cx="27" cy="27" r="27"/><path class="b" d="M98.9,109.222v24.757l14.546,14.546q1,.074,2.023.075a27,27,0,0,0,27-27q0-1.021-.075-2.023l-10.355-10.355H122.13l-3.468-3.468Z" transform="translate(-88.467 -94.6)"/><g transform="translate(10.431 11.154)"><path class="c" d="M98.9,133.979l19.764,3.468V105.754L98.9,109.222Z" transform="translate(-98.898 -105.754)"/><rect class="c" width="12.413" height="24.758" transform="translate(20.726 3.467)"/></g><g transform="translate(15.657 17.134)"><rect class="d" width="3.121" height="3.398" transform="translate(15.5)"/><rect class="d" width="3.121" height="3.398" transform="translate(15.5 5.444)"/><rect class="d" width="3.121" height="3.398" transform="translate(15.5 10.889)"/><rect class="d" width="3.121" height="3.398" transform="translate(15.5 16.333)"/><rect class="d" width="5.444" height="3.398" transform="translate(20.215)"/><rect class="d" width="5.444" height="3.398" transform="translate(20.215 5.444)"/><rect class="d" width="5.444" height="3.398" transform="translate(20.215 10.889)"/><rect class="d" width="5.444" height="3.398" transform="translate(20.215 16.333)"/><path class="d" d="M156.651,207.943H154.4l-1.706,3.028-1.706-3.028h-2.256l2.833,5.03-3.111,5.522h2.255l1.983-3.52,1.983,3.52h2.255l-3.111-5.522Z" transform="translate(-148.451 -203.146)"/></g></svg>