<svg xmlns="http://www.w3.org/2000/svg" xmlns:xlink="http://www.w3.org/1999/xlink" viewBox="0 0 58.139 25">
  <defs>
    <style>
      .cls-1 {
        stroke: rgba(0,0,0,0);
        fill: url(#linear-gradient);
      }

      .cls-2 {
        fill: url(#linear-gradient-2);
      }
    </style>
    <linearGradient id="linear-gradient" x1="0.021" x2="0.832" y2="0.869" gradientUnits="objectBoundingBox">
      <stop offset="0" stop-color="red"/>
      <stop offset="1" stop-color="#ccb801"/>
    </linearGradient>
    <linearGradient id="linear-gradient-2" x1="0.25" y1="0.207" x2="0.751" y2="0.94" xlink:href="#linear-gradient"/>
  </defs>
  <g id="Group_943" data-name="Group 943" transform="translate(-257.008 -110)">
    <path id="Path_34" data-name="Path 34" class="cls-1" d="M7.787,0h-1.4V-3.645H2.432V0H1.037V-8.4H2.432v3.533H6.387V-8.4h1.4Zm7.457.141a3.779,3.779,0,0,1-2.909-1.178A4.326,4.326,0,0,1,11.242-4.1a4.583,4.583,0,0,1,1.113-3.234,3.911,3.911,0,0,1,3.023-1.207A3.7,3.7,0,0,1,18.23-7.371a4.341,4.341,0,0,1,1.081,3.064A4.6,4.6,0,0,1,18.2-1.055,3.84,3.84,0,0,1,15.244.141Zm.064-7.459a2.338,2.338,0,0,0-1.878.861,3.408,3.408,0,0,0-.724,2.268,3.44,3.44,0,0,0,.7,2.256,2.267,2.267,0,0,0,1.84.855,2.375,2.375,0,0,0,1.9-.814,3.4,3.4,0,0,0,.7-2.279A3.562,3.562,0,0,0,17.175-6.5,2.288,2.288,0,0,0,15.309-7.318Zm12.338.1H25.233V0H23.838V-7.219H21.43V-8.4h6.217Z" transform="translate(287 128)"/>
    <g id="Group_615" data-name="Group 615" transform="translate(239 104.8)">
      <g id="Group_614" data-name="Group 614" transform="translate(18.007 5.2)">
        <path id="Path_33" data-name="Path 33" class="cls-2" d="M35.846,17.03a10.74,10.74,0,0,0-2.514-2.459,14.312,14.312,0,0,1-2.623-2.678c-.027-.055-.082-.109-.109-.164-1.257-1.8-2.022-4.481-.847-6.53-.082.137-.574.273-.71.355A10.189,10.189,0,0,0,27.95,6.1a10.889,10.889,0,0,0-2.1,1.585,9.423,9.423,0,0,0-3.306,6.421,14.98,14.98,0,0,0,.137,2.923c.164.929.738,1.721.519,2.7a.481.481,0,0,1-.246.355.493.493,0,0,1-.328-.082c-1.885-1.011-2.9-4.18-2.213-6.147-.71,2.049-1.967,3.743-2.3,5.929a7.75,7.75,0,0,0,.383,4.016,9.21,9.21,0,0,0,2.131,3.251,12.592,12.592,0,0,0,3.443,2.4,5.545,5.545,0,0,0,.71.3,7.668,7.668,0,0,0,.847.219,12.5,12.5,0,0,0,4.508.027A9.12,9.12,0,0,0,33.442,28.7a9.388,9.388,0,0,0,2.923-3.115A8.433,8.433,0,0,0,35.846,17.03Zm-4.453,7.076c-2.213,3.142-5.218.656-5.218.656,3.743-.492,2.24-8.142,2.24-8.142C33.77,20.637,31.393,24.107,31.393,24.107Z" transform="translate(-18.007 -5.2)"/>
      </g>
    </g>
  </g>
</svg>
