<svg xmlns="http://www.w3.org/2000/svg" width="426.65" height="512" viewBox="0 0 426.65 512">
  <g id="Group_11" data-name="Group 11" transform="translate(-597 -398)">
    <g id="Group_10" data-name="Group 10">
      <g id="Group_9" data-name="Group 9">
        <g id="Group_8" data-name="Group 8">
          <g id="Group_7" data-name="Group 7">
            <g id="Group_6" data-name="Group 6">
              <g id="Group_5" data-name="Group 5">
                <g id="notification_1_" data-name="notification (1)" transform="translate(554.325 398)">
                  <g id="Group_2" data-name="Group 2">
                    <g id="Group_1" data-name="Group 1">
                      <path id="Path_1" data-name="Path 1" d="M467.812,431.851,431.183,370.8a181.363,181.363,0,0,1-25.856-93.312V224c0-67.52-45.056-124.629-106.667-143.04V42.667a42.667,42.667,0,0,0-85.334,0V80.96C151.716,99.371,106.66,156.48,106.66,224v53.483a181.472,181.472,0,0,1-25.835,93.291L44.2,431.83A10.685,10.685,0,0,0,53.327,448H458.66a10.664,10.664,0,0,0,9.152-16.15Z" fill="#fff"/>
                    </g>
                  </g>
                  <g id="Group_4" data-name="Group 4">
                    <g id="Group_3" data-name="Group 3">
                      <path id="Path_2" data-name="Path 2" d="M188.815,469.333a74.219,74.219,0,0,0,134.357,0Z" fill="#fff"/>
                    </g>
                  </g>
                </g>
              </g>
            </g>
          </g>
        </g>
      </g>
    </g>
  </g>
</svg>
