<svg xmlns="http://www.w3.org/2000/svg" width="35.193" height="28.01" viewBox="0 0 35.193 28.01">
  <path id="Path_166" data-name="Path 166" d="M39.394,28.455A3.815,3.815,0,0,0,35.7,31.312l-3.183-.1a7.176,7.176,0,0,0-1.8-3.793l4.021-5.666a2.553,2.553,0,1,0-.667-.549l-4.82,4.981a7.186,7.186,0,0,0-7.959.152l-3.442-3.31a2.98,2.98,0,1,0-1.382,1.328l3.178,3.575a7.166,7.166,0,0,0-.812,7.327l-3.805,2.307a4.233,4.233,0,1,0,1.249,1.887l3.532-2.616a7.2,7.2,0,0,0,12.71-3.5l3.183-.1a3.816,3.816,0,1,0,3.691-4.778Z" transform="translate(-8.019 -16.983)" fill="#fff"/>
</svg>
