<svg xmlns="http://www.w3.org/2000/svg" width="38" height="38" viewBox="0 0 38 38">
  <g id="Group_954" data-name="Group 954" transform="translate(-31 -301)">
    <rect id="Rectangle_820" data-name="Rectangle 820" width="38" height="38" transform="translate(31 301)" fill="none"/>
    <rect id="Rectangle_821" data-name="Rectangle 821" width="28.5" height="28.5" transform="translate(35.75 305.75)" fill="none"/>
    <path id="Path_288" data-name="Path 288" d="M28.849,1.84,14.878,9.906l-.3.175-.3-.18L.9,1.836,1.514.82,14.592,8.706,28.26.815Z" transform="translate(35.119 304.722)" fill="#fff"/>
    <path id="Path_289" data-name="Path 289" d="M1.444.8h27.94V16.64H11.431l.271-.271a2.531,2.531,0,0,0,.443-.6,2.6,2.6,0,0,0,.143-.316H28.2V1.988H2.038V15.452H2.6A10.922,10.922,0,0,0,2.9,16.64H.85V.8h.594Z" transform="translate(34.883 304.655)" fill="#fff"/>
    <path id="Path_290" data-name="Path 290" d="M23.345,19.189a1.607,1.607,0,0,1-.072.748,1.673,1.673,0,0,1-.405.635h0l-2.926,2.9a2.043,2.043,0,0,1-.321.287,2.513,2.513,0,0,1-.381.225,2.979,2.979,0,0,1-.4.16,2.55,2.55,0,0,1-.408.093l-.079.007h0s0,0,0,0l-.079.006q-.07.007-.164.011l-.182.005c-3.272,0-6.962-2.119-10.032-4.991C4.509,16.11,1.849,11.994,1.341,8.8q-.048-.3-.073-.562t-.026-.479h0V7.74h0c0-.035,0-.063,0-.084,0-.044,0-.072,0-.081.009-.164.015-.267.017-.306s0-.078,0-.105l.007-.083a2.548,2.548,0,0,1,.093-.408,2.985,2.985,0,0,1,.16-.4,2.505,2.505,0,0,1,.225-.381,2.053,2.053,0,0,1,.266-.3h0L4.963,2.645a1.675,1.675,0,0,1,.516-.356,1.515,1.515,0,0,1,.613-.129v0a1.459,1.459,0,0,1,.455.069,1.4,1.4,0,0,1,.41.215,2.093,2.093,0,0,1,.286.258,2.2,2.2,0,0,1,.234.308l.026.042L9.867,7.54h0a1.644,1.644,0,0,1,.2.578,1.741,1.741,0,0,1-.024.609,2.061,2.061,0,0,1-.194.546,1.938,1.938,0,0,1-.344.462h0l-1,1A2.737,2.737,0,0,0,8.586,11a4.64,4.64,0,0,0,.227.5l0,.007a12.6,12.6,0,0,0,2.267,2.925,12.835,12.835,0,0,0,2.936,2.286v0q.249.127.411.192a1.388,1.388,0,0,0,.234.076l.114.023,1.176-1.2.028-.028a1.954,1.954,0,0,1,1.325-.505,2.141,2.141,0,0,1,.465.049,1.473,1.473,0,0,1,.411.154l.045.013,4.277,2.526.009.007a1.939,1.939,0,0,1,.534.473,1.567,1.567,0,0,1,.292.646l0,.039Zm-1.19.358a.423.423,0,0,0,.02-.172.4.4,0,0,0-.073-.157.747.747,0,0,0-.2-.175h0L17.64,16.527l-.04-.011a.288.288,0,0,0-.084-.03,1.019,1.019,0,0,0-.21-.017.761.761,0,0,0-.533.2L15.534,17.93l0,0a.835.835,0,0,1-.2.146,1.154,1.154,0,0,1-.181.075q-.088.029-.139.041a.857.857,0,0,1-.19.025l-.116-.012-.277-.055a2.569,2.569,0,0,1-.442-.14q-.236-.1-.509-.234v0a14.017,14.017,0,0,1-3.238-2.5,13.782,13.782,0,0,1-2.481-3.225h0a5.777,5.777,0,0,1-.283-.63,3.651,3.651,0,0,1-.172-.6l-.012-.109a.974.974,0,0,1,.02-.191,1.441,1.441,0,0,1,.046-.161,1.149,1.149,0,0,1,.075-.181.84.84,0,0,1,.144-.2v0L8.664,8.895h0a.749.749,0,0,0,.132-.18.87.87,0,0,0,.083-.23.577.577,0,0,0,.01-.2.471.471,0,0,0-.058-.165l-.007-.014L6.463,3.623a1.035,1.035,0,0,0-.092-.115.918.918,0,0,0-.124-.114.227.227,0,0,0-.066-.034.284.284,0,0,0-.088-.014v0a.347.347,0,0,0-.14.027.509.509,0,0,0-.149.11L2.855,6.433l-.023.021a.866.866,0,0,0-.122.137,1.315,1.315,0,0,0-.118.2,1.789,1.789,0,0,0-.1.24,1.418,1.418,0,0,0-.047.19l-.005.1c-.005.109-.011.213-.017.315l0,.048c0,.023,0,.04,0,.051h0v.018h0q0,.153.021.367t.064.487c.468,2.947,2.982,6.8,6.192,9.8,2.87,2.685,6.274,4.667,9.225,4.667h.14l.09-.006.1-.011.041,0a1.421,1.421,0,0,0,.187-.046,1.789,1.789,0,0,0,.24-.095,1.321,1.321,0,0,0,.2-.118.867.867,0,0,0,.137-.122l.023-.023,2.946-2.924h0a.509.509,0,0,0,.127-.185Zm-3.8,4.7h0Z" transform="translate(36.661 310.869)" fill="#fff"/>
  </g>
</svg>
