<svg xmlns="http://www.w3.org/2000/svg" width="40.008" height="27.991" viewBox="0 0 40.008 27.991">
  <path id="Path_167" data-name="Path 167" d="M1.206,3.483A8.012,8.012,0,0,0,.073,8.816,6.454,6.454,0,0,0,2.394,12.98a.418.418,0,0,0,.159.106l8.185,3.845a1.06,1.06,0,0,0,.974-.089A13.424,13.424,0,0,0,14.9,13.883a1.746,1.746,0,0,0,.673.124,2.008,2.008,0,0,0,2-1.984,1.941,1.941,0,0,0-.656-1.471,11.763,11.763,0,0,0,.992-6.166,1.036,1.036,0,0,0-.62-.78C14.53,2.491,11.766,1.3,9,.206A6.99,6.99,0,0,0,7.142.028,7.753,7.753,0,0,0,1.206,3.483ZM30.971.206c-2.746,1.134-5.528,2.268-8.292,3.4a.98.98,0,0,0-.6.78c-.567,3.862,1.524,9.355,6.2,12.455a1.055,1.055,0,0,0,.974.089l8.168-3.845a.472.472,0,0,0,.177-.106,6.36,6.36,0,0,0,2.3-4.164A7.373,7.373,0,0,0,38.785,3.5,7.85,7.85,0,0,0,32.832.028a7.991,7.991,0,0,0-1.861.178ZM7.213,2a4.837,4.837,0,0,1,1.276.159c1.9.744,3.791,1.541,5.687,2.321-.248.283-.478.567-.726.886L9.516,3.607C8.169,3.094,6.309,2.9,5.37,3.785A1.082,1.082,0,0,0,5.335,5.22a1.082,1.082,0,0,0,1.435.035A2.94,2.94,0,0,1,8.63,5.4c1.222.532,2.445,1.081,3.667,1.63a19.206,19.206,0,0,0-.974,1.789A15.918,15.918,0,0,0,9.587,14.17L3.581,11.35A4.651,4.651,0,0,1,2.057,8.5a5.1,5.1,0,0,1,.8-3.88A6.411,6.411,0,0,1,7.213,2ZM32.761,2a5.285,5.285,0,0,1,4.358,2.6,6.862,6.862,0,0,1,.8,3.9,4.554,4.554,0,0,1-1.509,2.85L30.4,14.167a16.324,16.324,0,0,0-1.736-5.351c-.319-.62-.638-1.222-.992-1.789,1.222-.532,2.463-1.1,3.685-1.63A3.525,3.525,0,0,1,33.2,5.22a1.039,1.039,0,0,0,1.417,0A1.044,1.044,0,0,0,34.6,3.785a4.118,4.118,0,0,0-4.11-.2c-1.311.585-2.64,1.169-3.969,1.772-.23-.319-.478-.6-.726-.886l5.669-2.321A11.7,11.7,0,0,1,32.761,2ZM15.929,5.521a11.437,11.437,0,0,1-1.152,4.66,2.063,2.063,0,0,0-.921.815,2.524,2.524,0,0,0-.266,1.2,12.339,12.339,0,0,1-2,2.2A14.6,14.6,0,0,1,13.1,9.7a19.068,19.068,0,0,1,2.835-4.181Zm8.132,0A19.314,19.314,0,0,1,26.7,9.365a2.164,2.164,0,0,0-1.913-.177,10.189,10.189,0,0,1-.726-3.667Zm3.49,5.7A13.67,13.67,0,0,1,28.4,14.4a12.961,12.961,0,0,1-1.683-1.736,2.038,2.038,0,0,0,.835-1.438Zm-5.475.283a2,2,0,1,0,2,2A2,2,0,0,0,22.076,11.5Zm-4.5,2.5a2,2,0,1,0,2,2A2,2,0,0,0,17.576,14Zm6.5,1.506a2,2,0,1,0,2,2,2.023,2.023,0,0,0-2-2Zm-4.5,2.5a2,2,0,1,0,2,2A2,2,0,0,0,19.576,18.01Zm5.014,2a2,2,0,1,0,2,2,2,2,0,0,0-2-2Zm-8.5.514a1.993,1.993,0,1,0,2,1.984,1.993,1.993,0,0,0-2-1.984Zm5.492,3.49a2,2,0,1,0,2,2,2,2,0,0,0-2-2Z" transform="translate(0.003 -0.023)" fill="#fff"/>
</svg>
