<svg xmlns="http://www.w3.org/2000/svg" xmlns:xlink="http://www.w3.org/1999/xlink" width="478" height="380.5" viewBox="0 0 478 380.5">
  <defs>
    <filter id="Rectangle_764" x="0" y="0" width="478" height="380.5" filterUnits="userSpaceOnUse">
      <feOffset dy="3" input="SourceAlpha"/>
      <feGaussianBlur stdDeviation="3" result="blur"/>
      <feFlood flood-opacity="0.161"/>
      <feComposite operator="in" in2="blur"/>
      <feComposite in="SourceGraphic"/>
    </filter>
    <filter id="Rectangle_767" x="325.947" y="54.209" width="33" height="33" filterUnits="userSpaceOnUse">
      <feOffset dy="3" input="SourceAlpha"/>
      <feGaussianBlur stdDeviation="3" result="blur-2"/>
      <feFlood flood-opacity="0.161"/>
      <feComposite operator="in" in2="blur-2"/>
      <feComposite in="SourceGraphic"/>
    </filter>
    <filter id="Rectangle_767-2" x="325.947" y="105.105" width="33" height="33" filterUnits="userSpaceOnUse">
      <feOffset dy="3" input="SourceAlpha"/>
      <feGaussianBlur stdDeviation="3" result="blur-3"/>
      <feFlood flood-opacity="0.161"/>
      <feComposite operator="in" in2="blur-3"/>
      <feComposite in="SourceGraphic"/>
    </filter>
    <filter id="Rectangle_767-3" x="325.947" y="156" width="33" height="33" filterUnits="userSpaceOnUse">
      <feOffset dy="3" input="SourceAlpha"/>
      <feGaussianBlur stdDeviation="3" result="blur-4"/>
      <feFlood flood-opacity="0.161"/>
      <feComposite operator="in" in2="blur-4"/>
      <feComposite in="SourceGraphic"/>
    </filter>
    <filter id="Rectangle_767-4" x="325.947" y="206.896" width="33" height="33" filterUnits="userSpaceOnUse">
      <feOffset dy="3" input="SourceAlpha"/>
      <feGaussianBlur stdDeviation="3" result="blur-5"/>
      <feFlood flood-opacity="0.161"/>
      <feComposite operator="in" in2="blur-5"/>
      <feComposite in="SourceGraphic"/>
    </filter>
    <filter id="Rectangle_767-5" x="325.947" y="257.791" width="33" height="33" filterUnits="userSpaceOnUse">
      <feOffset dy="3" input="SourceAlpha"/>
      <feGaussianBlur stdDeviation="3" result="blur-6"/>
      <feFlood flood-opacity="0.161"/>
      <feComposite operator="in" in2="blur-6"/>
      <feComposite in="SourceGraphic"/>
    </filter>
    <filter id="Rectangle_766" x="40" y="73" width="198" height="198" filterUnits="userSpaceOnUse">
      <feOffset dy="3" input="SourceAlpha"/>
      <feGaussianBlur stdDeviation="3" result="blur-7"/>
      <feFlood flood-opacity="0.161"/>
      <feComposite operator="in" in2="blur-7"/>
      <feComposite in="SourceGraphic"/>
    </filter>
  </defs>
  <g id="Group_1005" data-name="Group 1005" transform="translate(-401 -530)">
    <g transform="matrix(1, 0, 0, 1, 401, 530)" filter="url(#Rectangle_764)">
      <rect id="Rectangle_764-2" data-name="Rectangle 764" width="460" height="362.5" transform="translate(9 6)" fill="#fff"/>
    </g>
    <rect id="Rectangle_759" data-name="Rectangle 759" width="186" height="20" rx="4" transform="translate(679 541)" fill="#ccc"/>
    <rect id="Rectangle_760" data-name="Rectangle 760" width="57" height="20" rx="4" transform="translate(655.559 541)"/>
    <text id="WEEK" transform="translate(668.098 555)" fill="#fff" font-size="10" font-family="SegoeUI-Semibold, Segoe UI" font-weight="600" letter-spacing="0.16em"><tspan x="0" y="0">WEEK</tspan></text>
    <text id="MONTH" transform="translate(737.191 555)" font-size="10" font-family="SegoeUI-Semibold, Segoe UI" font-weight="600" letter-spacing="0.16em"><tspan x="0" y="0">MONTH</tspan></text>
    <text id="YEAR" transform="translate(823 555)" font-size="10" font-family="SegoeUI-Semibold, Segoe UI" font-weight="600" letter-spacing="0.16em"><tspan x="0" y="0">YEAR</tspan></text>
    <line id="Line_128" data-name="Line 128" y2="10" transform="translate(809.5 546.5)" fill="none" stroke="rgba(0,0,0,0.19)" stroke-width="1"/>
    <text id="Franchise_top_5_" data-name="Franchise &quot; top 5 &quot;" transform="translate(415 557)" font-size="14" font-family="SegoeUI-Light, Segoe UI" font-weight="300" opacity="0.49"><tspan x="0" y="0">Franchise &quot; top 5 &quot;</tspan></text>
    <g transform="matrix(1, 0, 0, 1, 401, 530)" filter="url(#Rectangle_767)">
      <rect id="Rectangle_767-6" data-name="Rectangle 767" width="15" height="15" transform="translate(334.95 60.21)" fill="#ed3237"/>
    </g>
    <text id="Franchise_1" data-name="Franchise  1" transform="translate(766 603)" font-size="14" font-family="SegoeUI, Segoe UI"><tspan x="0" y="0" xml:space="preserve">Franchise  1</tspan></text>
    <g transform="matrix(1, 0, 0, 1, 401, 530)" filter="url(#Rectangle_767-2)">
      <rect id="Rectangle_767-7" data-name="Rectangle 767" width="15" height="15" transform="translate(334.95 111.1)" fill="#d13bcc"/>
    </g>
    <text id="Franchise_2" data-name="Franchise  2" transform="translate(766 653.979)" font-size="14" font-family="SegoeUI, Segoe UI"><tspan x="0" y="0" xml:space="preserve">Franchise  2</tspan></text>
    <g transform="matrix(1, 0, 0, 1, 401, 530)" filter="url(#Rectangle_767-3)">
      <rect id="Rectangle_767-8" data-name="Rectangle 767" width="15" height="15" transform="translate(334.95 162)" fill="#fd8d14"/>
    </g>
    <text id="Franchise_3" data-name="Franchise  3" transform="translate(766 704.958)" font-size="14" font-family="SegoeUI, Segoe UI"><tspan x="0" y="0" xml:space="preserve">Franchise  3</tspan></text>
    <g transform="matrix(1, 0, 0, 1, 401, 530)" filter="url(#Rectangle_767-4)">
      <rect id="Rectangle_767-9" data-name="Rectangle 767" width="15" height="15" transform="translate(334.95 212.9)" fill="#7db8ff"/>
    </g>
    <text id="Franchise_4" data-name="Franchise  4" transform="translate(766 755.937)" font-size="14" font-family="SegoeUI, Segoe UI"><tspan x="0" y="0" xml:space="preserve">Franchise  4</tspan></text>
    <g transform="matrix(1, 0, 0, 1, 401, 530)" filter="url(#Rectangle_767-5)">
      <rect id="Rectangle_767-10" data-name="Rectangle 767" width="15" height="15" transform="translate(334.95 263.79)" fill="#4ad95a"/>
    </g>
    <text id="Franchise_5" data-name="Franchise  5" transform="translate(766 806.915)" font-size="14" font-family="SegoeUI, Segoe UI"><tspan x="0" y="0" xml:space="preserve">Franchise  5</tspan></text>
    <g id="Rectangle_768" data-name="Rectangle 768" transform="translate(410 828.5)" fill="#ccc" stroke="#000" stroke-width="1" opacity="0.4">
      <rect width="92" height="70" stroke="none"/>
      <rect x="0.5" y="0.5" width="91" height="69" fill="none"/>
    </g>
    <g id="Rectangle_773" data-name="Rectangle 773" transform="translate(410 828.5)" fill="#a8a8a8" stroke="#707070" stroke-width="1">
      <rect width="92" height="20" stroke="none"/>
      <rect x="0.5" y="0.5" width="91" height="19" fill="none"/>
    </g>
    <g id="Rectangle_769" data-name="Rectangle 769" transform="translate(501 828.5)" fill="#ccc" stroke="#000" stroke-width="1" opacity="0.4">
      <rect width="92" height="70" stroke="none"/>
      <rect x="0.5" y="0.5" width="91" height="69" fill="none"/>
    </g>
    <g id="Rectangle_774" data-name="Rectangle 774" transform="translate(501 828.5)" fill="#a8a8a8" stroke="#707070" stroke-width="1">
      <rect width="92" height="20" stroke="none"/>
      <rect x="0.5" y="0.5" width="91" height="19" fill="none"/>
    </g>
    <g id="Rectangle_770" data-name="Rectangle 770" transform="translate(592 828.5)" fill="#ccc" stroke="#000" stroke-width="1" opacity="0.4">
      <rect width="92" height="70" stroke="none"/>
      <rect x="0.5" y="0.5" width="91" height="69" fill="none"/>
    </g>
    <g id="Rectangle_775" data-name="Rectangle 775" transform="translate(592 828.5)" fill="#a8a8a8" stroke="#707070" stroke-width="1">
      <rect width="92" height="20" stroke="none"/>
      <rect x="0.5" y="0.5" width="91" height="19" fill="none"/>
    </g>
    <g id="Rectangle_771" data-name="Rectangle 771" transform="translate(683 828.5)" fill="#ccc" stroke="#000" stroke-width="1" opacity="0.4">
      <rect width="92" height="70" stroke="none"/>
      <rect x="0.5" y="0.5" width="91" height="69" fill="none"/>
    </g>
    <g id="Rectangle_776" data-name="Rectangle 776" transform="translate(683 828.5)" fill="#a8a8a8" stroke="#707070" stroke-width="1">
      <rect width="92" height="20" stroke="none"/>
      <rect x="0.5" y="0.5" width="91" height="19" fill="none"/>
    </g>
    <g id="Rectangle_772" data-name="Rectangle 772" transform="translate(774 828.5)" fill="#ccc" stroke="#000" stroke-width="1" opacity="0.4">
      <rect width="96" height="70" stroke="none"/>
      <rect x="0.5" y="0.5" width="95" height="69" fill="none"/>
    </g>
    <g id="Rectangle_777" data-name="Rectangle 777" transform="translate(774 828.5)" fill="#a8a8a8" stroke="#707070" stroke-width="1">
      <rect width="96" height="20" stroke="none"/>
      <rect x="0.5" y="0.5" width="95" height="19" fill="none"/>
    </g>
    <text id="_354126" data-name="354126" transform="translate(435.5 880)" font-size="16" font-family="SegoeUI-Semibold, Segoe UI" font-weight="600"><tspan x="0" y="0">354126</tspan></text>
    <path id="Path_39" data-name="Path 39" d="M5.292,1028.36l-.292.583h.875a1.449,1.449,0,0,1,1.265.643,1.263,1.263,0,0,1,.185.524H5.292l-.292.583H7.252a1.281,1.281,0,0,1-.1.216,1.411,1.411,0,0,1-1.235.659H5v.583c.712,1.045,1.419,2.14,2.121,3.208h.661l-2.109-3.208a2.07,2.07,0,0,0,1.975-.94,1.838,1.838,0,0,0,.213-.519H8.5l.292-.583H7.907a1.836,1.836,0,0,0-.273-.834,1.9,1.9,0,0,0-.271-.333H8.5l.292-.583Z" transform="translate(421 -155.36)"/>
    <text id="_32658" data-name="32658" transform="translate(529.408 880)" font-size="16" font-family="SegoeUI-Semibold, Segoe UI" font-weight="600"><tspan x="0" y="0">32658</tspan></text>
    <path id="Path_39-2" data-name="Path 39" d="M5.292,1028.36l-.292.583h.875a1.449,1.449,0,0,1,1.265.643,1.263,1.263,0,0,1,.185.524H5.292l-.292.583H7.252a1.281,1.281,0,0,1-.1.216,1.411,1.411,0,0,1-1.235.659H5v.583c.712,1.045,1.419,2.14,2.121,3.208h.661l-2.109-3.208a2.07,2.07,0,0,0,1.975-.94,1.838,1.838,0,0,0,.213-.519H8.5l.292-.583H7.907a1.836,1.836,0,0,0-.273-.834,1.9,1.9,0,0,0-.271-.333H8.5l.292-.583Z" transform="translate(514.998 -156.06)"/>
    <text id="_25562" data-name="25562" transform="translate(620.893 880)" font-size="16" font-family="SegoeUI-Semibold, Segoe UI" font-weight="600"><tspan x="0" y="0">25562</tspan></text>
    <path id="Path_39-3" data-name="Path 39" d="M5.292,1028.36l-.292.583h.875a1.449,1.449,0,0,1,1.265.643,1.263,1.263,0,0,1,.185.524H5.292l-.292.583H7.252a1.281,1.281,0,0,1-.1.216,1.411,1.411,0,0,1-1.235.659H5v.583c.712,1.045,1.419,2.14,2.121,3.208h.661l-2.109-3.208a2.07,2.07,0,0,0,1.975-.94,1.838,1.838,0,0,0,.213-.519H8.5l.292-.583H7.907a1.836,1.836,0,0,0-.273-.834,1.9,1.9,0,0,0-.271-.333H8.5l.292-.583Z" transform="translate(607 -155.06)"/>
    <text id="_17623" data-name="17623" transform="translate(712.129 880)" font-size="16" font-family="SegoeUI-Semibold, Segoe UI" font-weight="600"><tspan x="0" y="0">17623</tspan></text>
    <path id="Path_39-4" data-name="Path 39" d="M5.292,1028.36l-.292.583h.875a1.449,1.449,0,0,1,1.265.643,1.263,1.263,0,0,1,.185.524H5.292l-.292.583H7.252a1.281,1.281,0,0,1-.1.216,1.411,1.411,0,0,1-1.235.659H5v.583c.712,1.045,1.419,2.14,2.121,3.208h.661l-2.109-3.208a2.07,2.07,0,0,0,1.975-.94,1.838,1.838,0,0,0,.213-.519H8.5l.292-.583H7.907a1.836,1.836,0,0,0-.273-.834,1.9,1.9,0,0,0-.271-.333H8.5l.292-.583Z" transform="translate(698 -156.06)"/>
    <text id="_10325" data-name="10325" transform="translate(805.9 880)" font-size="16" font-family="SegoeUI-Semibold, Segoe UI" font-weight="600"><tspan x="0" y="0">10325</tspan></text>
    <path id="Path_39-5" data-name="Path 39" d="M5.292,1028.36l-.292.583h.875a1.449,1.449,0,0,1,1.265.643,1.263,1.263,0,0,1,.185.524H5.292l-.292.583H7.252a1.281,1.281,0,0,1-.1.216,1.411,1.411,0,0,1-1.235.659H5v.583c.712,1.045,1.419,2.14,2.121,3.208h.661l-2.109-3.208a2.07,2.07,0,0,0,1.975-.94,1.838,1.838,0,0,0,.213-.519H8.5l.292-.583H7.907a1.836,1.836,0,0,0-.273-.834,1.9,1.9,0,0,0-.271-.333H8.5l.292-.583Z" transform="translate(792 -156.06)"/>
    <text id="Franchise_1-2" data-name="Franchise  1" transform="translate(425 843.5)" fill="#fff" font-size="12" font-family="SegoeUI-Semibold, Segoe UI" font-weight="600"><tspan x="0" y="0" xml:space="preserve">Franchise  1</tspan></text>
    <text id="Franchise_2-2" data-name="Franchise  2" transform="translate(515 843.5)" fill="#fff" font-size="12" font-family="SegoeUI-Semibold, Segoe UI" font-weight="600"><tspan x="0" y="0" xml:space="preserve">Franchise  2</tspan></text>
    <text id="Franchise_3-2" data-name="Franchise  3" transform="translate(606 843.5)" fill="#fff" font-size="12" font-family="SegoeUI-Semibold, Segoe UI" font-weight="600"><tspan x="0" y="0" xml:space="preserve">Franchise  3</tspan></text>
    <text id="Franchise_4-2" data-name="Franchise  4" transform="translate(697 843.5)" fill="#fff" font-size="12" font-family="SegoeUI-Semibold, Segoe UI" font-weight="600"><tspan x="0" y="0" xml:space="preserve">Franchise  4</tspan></text>
    <text id="Franchise_5-2" data-name="Franchise  5" transform="translate(790 843.5)" fill="#fff" font-size="12" font-family="SegoeUI-Semibold, Segoe UI" font-weight="600"><tspan x="0" y="0" xml:space="preserve">Franchise  5</tspan></text>
    <g transform="matrix(1, 0, 0, 1, 401, 530)" filter="url(#Rectangle_766)">
      <rect id="Rectangle_766-2" data-name="Rectangle 766" width="180" height="180" rx="90" transform="translate(49 79)" fill="#ed3237"/>
    </g>
    <path id="Path_280" data-name="Path 280" d="M-12858,4331l-2.083-89.917a92.368,92.368,0,0,1,38.75,7.833,91.777,91.777,0,0,1,31.666,23.583Z" transform="translate(13398 -3632)" fill="#d13bcc"/>
    <path id="Path_281" data-name="Path 281" d="M-12789.75,4272.667l-68.5,57.833,88-18.75s-2.583-13.083-7.583-22.083A115.962,115.962,0,0,0-12789.75,4272.667Z" transform="translate(13398 -3632)" fill="#fd8d14"/>
    <path id="Path_282" data-name="Path 282" d="M-12770.75,4311.75l-87.75,19,37.667,82.083s28.916-8.667,44.166-43.167S-12770.75,4311.75-12770.75,4311.75Z" transform="translate(13398 -3632)" fill="#7db8ff"/>
    <path id="Path_283" data-name="Path 283" d="M-12820.583,4412.833-12858.25,4330l20.417,88.833a73.63,73.63,0,0,0,9.833-2.583A47.654,47.654,0,0,0-12820.583,4412.833Z" transform="translate(13398 -3632)" fill="#4ad95a"/>
  </g>
</svg>
